<svg viewBox="0 0 12 12" width="60px" height="60px" xmlns="http://www.w3.org/2000/svg"><path fill-rule="evenodd" d="M 0,1 3,1 3,2 8,2 8,1 11,1 11,9 10,9 10,10 6,10 6,8 5,8 5,10 1,10 1,9 0,9z" fill="#32A467"/><path fill-rule="evenodd" d="M 1,2 2,2 2,3 1,3z" fill="#ffffff"/><path fill-rule="evenodd" d="M 9,2 10,2 10,3 9,3z" fill="#ffffff"/><path fill-rule="evenodd" d="M 2,3 3,3 3,4 2,4z" fill="#ffffff"/><path fill-rule="evenodd" d="M 5,3 6,3 6,4 5,4z" fill="#ffffff"/><path fill-rule="evenodd" d="M 8,3 9,3 9,4 8,4z" fill="#ffffff"/><path fill-rule="evenodd" d="M 1,5 2,5 2,6 1,6z" fill="#ffffff"/><path fill-rule="evenodd" d="M 4,5 5,5 5,7 4,7z" fill="#ffffff"/><path fill-rule="evenodd" d="M 6,5 7,5 7,7 6,7z" fill="#ffffff"/><path fill-rule="evenodd" d="M 9,5 10,5 10,6 9,6z" fill="#ffffff"/><path fill-rule="evenodd" d="M 2,6 3,6 3,7 2,7z" fill="#ffffff"/><path fill-rule="evenodd" d="M 8,6 9,6 9,7 8,7z" fill="#ffffff"/><path fill-rule="evenodd" d="M 1,7 2,7 2,8 1,8z" fill="#ffffff"/><path fill-rule="evenodd" d="M 9,7 10,7 10,8 9,8z" fill="#ffffff"/><path fill-rule="evenodd" d="M 2,8 4,8 4,9 2,9z" fill="#ffffff"/><path fill-rule="evenodd" d="M 7,8 9,8 9,9 7,9z" fill="#ffffff"/></svg>